<?xml version="1.0" encoding="us-ascii" standalone="no"?><!--suppress ALL -->
<svg xmlns="http://www.w3.org/2000/svg" xmlns:xlink="http://www.w3.org/1999/xlink" contentStyleType="text/css" height="500px" preserveAspectRatio="none" style="width:440px;height:500px;background:#FFFFFF;" version="1.1" viewBox="0 0 440 500" width="440px" zoomAndPan="magnify"><defs/><g><line style="stroke:#181818;stroke-width:0.5;stroke-dasharray:5.0,5.0;" x1="33" x2="33" y1="36.2969" y2="465.4219"/><line style="stroke:#181818;stroke-width:0.5;stroke-dasharray:5.0,5.0;" x1="259.5" x2="259.5" y1="36.2969" y2="465.4219"/><line style="stroke:#181818;stroke-width:0.5;stroke-dasharray:5.0,5.0;" x1="403.5" x2="403.5" y1="36.2969" y2="465.4219"/><rect fill="#E2E2F0" height="30.2969" rx="2.5" ry="2.5" style="stroke:#181818;stroke-width:0.5;" width="57" x="5" y="5"/><text fill="#000000" font-family="sans-serif" font-size="14" lengthAdjust="spacing" textLength="43" x="12" y="24.9951">Client</text><rect fill="#E2E2F0" height="30.2969" rx="2.5" ry="2.5" style="stroke:#181818;stroke-width:0.5;" width="57" x="5" y="464.4219"/><text fill="#000000" font-family="sans-serif" font-size="14" lengthAdjust="spacing" textLength="43" x="12" y="484.417">Client</text><rect fill="#E2E2F0" height="30.2969" rx="2.5" ry="2.5" style="stroke:#181818;stroke-width:0.5;" width="208" x="155.5" y="5"/><text fill="#000000" font-family="sans-serif" font-size="14" lengthAdjust="spacing" textLength="194" x="162.5" y="24.9951">&#1059;&#1076;&#1086;&#1089;&#1090;&#1086;&#1074;&#1077;&#1088;&#1103;&#1102;&#1097;&#1080;&#1081; &#1089;&#1077;&#1088;&#1074;&#1077;&#1088;</text><rect fill="#E2E2F0" height="30.2969" rx="2.5" ry="2.5" style="stroke:#181818;stroke-width:0.5;" width="208" x="155.5" y="464.4219"/><text fill="#000000" font-family="sans-serif" font-size="14" lengthAdjust="spacing" textLength="194" x="162.5" y="484.417">&#1059;&#1076;&#1086;&#1089;&#1090;&#1086;&#1074;&#1077;&#1088;&#1103;&#1102;&#1097;&#1080;&#1081; &#1089;&#1077;&#1088;&#1074;&#1077;&#1088;</text><rect fill="#E2E2F0" height="30.2969" rx="2.5" ry="2.5" style="stroke:#181818;stroke-width:0.5;" width="61" x="373.5" y="5"/><text fill="#000000" font-family="sans-serif" font-size="14" lengthAdjust="spacing" textLength="47" x="380.5" y="24.9951">Server</text><rect fill="#E2E2F0" height="30.2969" rx="2.5" ry="2.5" style="stroke:#181818;stroke-width:0.5;" width="61" x="373.5" y="464.4219"/><text fill="#000000" font-family="sans-serif" font-size="14" lengthAdjust="spacing" textLength="47" x="380.5" y="484.417">Server</text><polygon fill="#181818" points="392,63.4297,402,67.4297,392,71.4297,396,67.4297" style="stroke:#181818;stroke-width:1.0;"/><line style="stroke:#181818;stroke-width:1.0;" x1="33.5" x2="398" y1="67.4297" y2="67.4297"/><text fill="#000000" font-family="sans-serif" font-size="13" lengthAdjust="spacing" textLength="75" x="40.5" y="62.3638">GET /orders</text><polygon fill="#181818" points="44.5,92.5625,34.5,96.5625,44.5,100.5625,40.5,96.5625" style="stroke:#181818;stroke-width:1.0;"/><line style="stroke:#181818;stroke-width:1.0;" x1="38.5" x2="403" y1="96.5625" y2="96.5625"/><text fill="#000000" font-family="sans-serif" font-size="13" lengthAdjust="spacing" textLength="113" x="50.5" y="91.4966">403 Unauthorized</text><polygon fill="#181818" points="247.5,121.6953,257.5,125.6953,247.5,129.6953,251.5,125.6953" style="stroke:#181818;stroke-width:1.0;"/><line style="stroke:#181818;stroke-width:1.0;" x1="33.5" x2="253.5" y1="125.6953" y2="125.6953"/><text fill="#000000" font-family="sans-serif" font-size="13" lengthAdjust="spacing" textLength="40" x="40.5" y="120.6294">/token</text><polygon fill="#181818" points="44.5,150.8281,34.5,154.8281,44.5,158.8281,40.5,154.8281" style="stroke:#181818;stroke-width:1.0;"/><line style="stroke:#181818;stroke-width:1.0;" x1="38.5" x2="258.5" y1="154.8281" y2="154.8281"/><text fill="#000000" font-family="sans-serif" font-size="13" lengthAdjust="spacing" textLength="89" x="50.5" y="149.7622">&#1060;&#1086;&#1088;&#1084;&#1072; &#1074;&#1093;&#1086;&#1076;&#1072;</text><polygon fill="#181818" points="247.5,195.0938,257.5,199.0938,247.5,203.0938,251.5,199.0938" style="stroke:#181818;stroke-width:1.0;"/><line style="stroke:#181818;stroke-width:1.0;" x1="33.5" x2="253.5" y1="199.0938" y2="199.0938"/><text fill="#000000" font-family="sans-serif" font-size="13" lengthAdjust="spacing" textLength="34" x="40.5" y="178.895">POST</text><text fill="#000000" font-family="sans-serif" font-size="13" lengthAdjust="spacing" textLength="110" x="40.5" y="194.0278">login + password</text><line style="stroke:#181818;stroke-width:1.0;" x1="259.5" x2="301.5" y1="228.2266" y2="228.2266"/><line style="stroke:#181818;stroke-width:1.0;" x1="301.5" x2="301.5" y1="228.2266" y2="241.2266"/><line style="stroke:#181818;stroke-width:1.0;" x1="260.5" x2="301.5" y1="241.2266" y2="241.2266"/><polygon fill="#181818" points="270.5,237.2266,260.5,241.2266,270.5,245.2266,266.5,241.2266" style="stroke:#181818;stroke-width:1.0;"/><text fill="#000000" font-family="sans-serif" font-size="13" lengthAdjust="spacing" textLength="106" x="266.5" y="223.1606">&#1089;&#1086;&#1079;&#1076;&#1072;&#1090;&#1100; &#1089;&#1077;&#1089;&#1089;&#1080;&#1102;</text><polygon fill="#181818" points="44.5,281.4922,34.5,285.4922,44.5,289.4922,40.5,285.4922" style="stroke:#181818;stroke-width:1.0;"/><line style="stroke:#181818;stroke-width:1.0;" x1="38.5" x2="258.5" y1="285.4922" y2="285.4922"/><text fill="#000000" font-family="sans-serif" font-size="13" lengthAdjust="spacing" textLength="46" x="50.5" y="265.2935">200 OK</text><text fill="#000000" font-family="sans-serif" font-size="13" lengthAdjust="spacing" textLength="202" x="50.5" y="280.4263">{access_token, refresh_token}</text><polygon fill="#181818" points="392,325.7578,402,329.7578,392,333.7578,396,329.7578" style="stroke:#181818;stroke-width:1.0;"/><line style="stroke:#181818;stroke-width:1.0;" x1="33.5" x2="398" y1="329.7578" y2="329.7578"/><text fill="#000000" font-family="sans-serif" font-size="13" lengthAdjust="spacing" textLength="75" x="40.5" y="309.5591">GET /orders</text><text fill="#000000" font-family="sans-serif" font-size="13" lengthAdjust="spacing" textLength="235" x="40.5" y="324.6919">Authentication: Bearer access_token</text><polygon fill="#181818" points="270.5,370.0234,260.5,374.0234,270.5,378.0234,266.5,374.0234" style="stroke:#181818;stroke-width:1.0;"/><line style="stroke:#181818;stroke-width:1.0;" x1="264.5" x2="403" y1="374.0234" y2="374.0234"/><text fill="#000000" font-family="sans-serif" font-size="13" lengthAdjust="spacing" textLength="106" x="276.5" y="353.8247">POST /introspect</text><text fill="#000000" font-family="sans-serif" font-size="13" lengthAdjust="spacing" textLength="87" x="276.5" y="368.9575">access_token</text><polygon fill="#181818" points="392,399.1563,402,403.1563,392,407.1563,396,403.1563" style="stroke:#181818;stroke-width:1.0;"/><line style="stroke:#181818;stroke-width:1.0;" x1="259.5" x2="398" y1="403.1563" y2="403.1563"/><text fill="#000000" font-family="sans-serif" font-size="13" lengthAdjust="spacing" textLength="46" x="266.5" y="398.0903">200 OK</text><polygon fill="#181818" points="44.5,443.4219,34.5,447.4219,44.5,451.4219,40.5,447.4219" style="stroke:#181818;stroke-width:1.0;"/><line style="stroke:#181818;stroke-width:1.0;" x1="38.5" x2="403" y1="447.4219" y2="447.4219"/><text fill="#000000" font-family="sans-serif" font-size="13" lengthAdjust="spacing" textLength="46" x="50.5" y="427.2231">200 OK</text><text fill="#000000" font-family="sans-serif" font-size="13" lengthAdjust="spacing" textLength="30" x="50.5" y="442.356">{...}</text><!--SRC=[VL31IWCn4BtlLmozQdSNzRI8e28UF5HelIr8IACDbcH9ee9Iw1Oy258_GZ-Wb8eLPBzXyaTcDrgtjdW9a_VclNap6L66KvuHOQ1nsETCc0OG3RGgWwnEumlEiB2v7M61KtopG_jin_OHv_W1DYy13rSEvDhqblLjfcwOgaXTbK7Wnq1pxnj9uFYe0v5KNQRq3xlRNB0xyJQSYT9QAdx7kZM34amWClAAYPhIm_ZgWW_n4oU0K_lWyizmiY8-RRKxgUZBIovW0pAYzQrB4fJaRvDRjC3tKcz7zidldRjtRiShOxVY65edgRWdb3Ajpwjmcw3OXMAwvx-3_u-GYdrdvNXEYU5I9730Y68AwfQ15ovl0X4NHacTCMfIiQxzJyurzrui48RXu0i0]--></g></svg>